<svg width="35" height="35" viewBox="0 0 35 35" fill="none" xmlns="http://www.w3.org/2000/svg">
<path d="M0 13.8542C0 6.20272 6.20272 0 13.8542 0H21.1458C28.7973 0 35 6.20272 35 13.8542V21.1458C35 28.7973 28.7973 35 21.1458 35H13.8542C6.20272 35 0 28.7973 0 21.1458V13.8542Z" fill="#FF9900"/>
<path fill-rule="evenodd" clip-rule="evenodd" d="M21.1458 2.91667H13.8542C7.81355 2.91667 2.91667 7.81355 2.91667 13.8542V21.1458C2.91667 27.1864 7.81355 32.0833 13.8542 32.0833H21.1458C27.1864 32.0833 32.0833 27.1864 32.0833 21.1458V13.8542C32.0833 7.81355 27.1864 2.91667 21.1458 2.91667ZM13.8542 0C6.20272 0 0 6.20272 0 13.8542V21.1458C0 28.7973 6.20272 35 13.8542 35H21.1458C28.7973 35 35 28.7973 35 21.1458V13.8542C35 6.20272 28.7973 0 21.1458 0H13.8542Z" fill="white"/>
<path fill-rule="evenodd" clip-rule="evenodd" d="M21.1458 2.91667H13.8542C7.81355 2.91667 2.91667 7.81355 2.91667 13.8542V21.1458C2.91667 27.1864 7.81355 32.0833 13.8542 32.0833H21.1458C27.1864 32.0833 32.0833 27.1864 32.0833 21.1458V13.8542C32.0833 7.81355 27.1864 2.91667 21.1458 2.91667ZM13.8542 0C6.20272 0 0 6.20272 0 13.8542V21.1458C0 28.7973 6.20272 35 13.8542 35H21.1458C28.7973 35 35 28.7973 35 21.1458V13.8542C35 6.20272 28.7973 0 21.1458 0H13.8542Z" fill="#FF9900"/>
<path d="M25.7657 12.2393C25.4533 11.9202 24.9468 11.9202 24.6343 12.2393L15.0498 22.0277L11.3657 18.2653C11.0533 17.9462 10.5468 17.9462 10.2343 18.2653C9.92189 18.5843 9.92189 19.1016 10.2343 19.4207L14.4841 23.7608C14.7964 24.0798 15.3033 24.0796 15.6155 23.7608L25.7657 13.3947C26.0781 13.0757 26.0781 12.5584 25.7657 12.2393Z" fill="white"/>
</svg>
