<svg width="161" height="23" viewBox="0 0 161 23" fill="none" xmlns="http://www.w3.org/2000/svg">
<path d="M42.032 6.83206L38.912 18.0001H36.272L34.176 10.0481L31.984 18.0001L29.36 18.0161L26.352 6.83206H28.752L30.72 15.5041L32.992 6.83206H35.488L37.632 15.4561L39.616 6.83206H42.032Z" fill="#FF9900"/>
<path d="M42.9186 13.5361C42.9186 12.6401 43.0946 11.8454 43.4466 11.1521C43.8093 10.4587 44.2946 9.92539 44.9026 9.55206C45.5213 9.17872 46.2093 8.99205 46.9666 8.99205C47.628 8.99205 48.204 9.12539 48.6946 9.39205C49.196 9.65872 49.596 9.99472 49.8946 10.4001V9.13605H52.1506V18.0001H49.8946V16.7041C49.6066 17.1201 49.2066 17.4667 48.6946 17.7441C48.1933 18.0107 47.612 18.1441 46.9506 18.1441C46.204 18.1441 45.5213 17.9521 44.9026 17.5681C44.2946 17.1841 43.8093 16.6454 43.4466 15.9521C43.0946 15.2481 42.9186 14.4427 42.9186 13.5361ZM49.8946 13.5681C49.8946 13.0241 49.788 12.5601 49.5746 12.1761C49.3613 11.7814 49.0733 11.4827 48.7106 11.2801C48.348 11.0667 47.9586 10.9601 47.5426 10.9601C47.1266 10.9601 46.7426 11.0614 46.3906 11.2641C46.0386 11.4667 45.7506 11.7654 45.5266 12.1601C45.3133 12.5441 45.2066 13.0027 45.2066 13.5361C45.2066 14.0694 45.3133 14.5387 45.5266 14.9441C45.7506 15.3387 46.0386 15.6427 46.3906 15.8561C46.7533 16.0694 47.1373 16.1761 47.5426 16.1761C47.9586 16.1761 48.348 16.0747 48.7106 15.8721C49.0733 15.6587 49.3613 15.3601 49.5746 14.9761C49.788 14.5814 49.8946 14.1121 49.8946 13.5681Z" fill="#FF9900"/>
<path d="M56.9464 10.9761V15.2641C56.9464 15.5627 57.0157 15.7814 57.1544 15.9201C57.3037 16.0481 57.549 16.1121 57.8904 16.1121H58.9304V18.0001H57.5224C55.6344 18.0001 54.6904 17.0827 54.6904 15.2481V10.9761H53.6344V9.13605H54.6904V6.94405H56.9464V9.13605H58.9304V10.9761H56.9464Z" fill="#FF9900"/>
<path d="M59.9655 13.5681C59.9655 12.6507 60.1522 11.8507 60.5255 11.1681C60.8988 10.4747 61.4162 9.94139 62.0775 9.56806C62.7388 9.18406 63.4962 8.99205 64.3495 8.99205C65.4482 8.99205 66.3548 9.26939 67.0695 9.82405C67.7948 10.3681 68.2802 11.1361 68.5255 12.1281H66.1095C65.9815 11.7441 65.7628 11.4454 65.4535 11.2321C65.1548 11.0081 64.7815 10.8961 64.3335 10.8961C63.6935 10.8961 63.1868 11.1307 62.8135 11.6001C62.4402 12.0587 62.2535 12.7147 62.2535 13.5681C62.2535 14.4107 62.4402 15.0667 62.8135 15.5361C63.1868 15.9947 63.6935 16.2241 64.3335 16.2241C65.2402 16.2241 65.8322 15.8187 66.1095 15.0081H68.5255C68.2802 15.9681 67.7948 16.7307 67.0695 17.2961C66.3442 17.8614 65.4375 18.1441 64.3495 18.1441C63.4962 18.1441 62.7388 17.9574 62.0775 17.5841C61.4162 17.2001 60.8988 16.6667 60.5255 15.9841C60.1522 15.2907 59.9655 14.4854 59.9655 13.5681Z" fill="#FF9900"/>
<path d="M75.1585 9.00805C75.8305 9.00805 76.4278 9.15739 76.9505 9.45605C77.4732 9.74405 77.8785 10.1761 78.1665 10.7521C78.4652 11.3174 78.6145 12.0001 78.6145 12.8001V18.0001H76.3745V13.1041C76.3745 12.4001 76.1985 11.8614 75.8465 11.4881C75.4945 11.1041 75.0145 10.9121 74.4065 10.9121C73.7878 10.9121 73.2972 11.1041 72.9345 11.4881C72.5825 11.8614 72.4065 12.4001 72.4065 13.1041V18.0001H70.1665V6.16006H72.4065V10.2401C72.6945 9.85605 73.0785 9.55739 73.5585 9.34406C74.0385 9.12005 74.5718 9.00805 75.1585 9.00805Z" fill="#FF9900"/>
<path d="M87.1651 10.9761V15.2641C87.1651 15.5627 87.2345 15.7814 87.3731 15.9201C87.5225 16.0481 87.7678 16.1121 88.1091 16.1121H89.1491V18.0001H87.7411C85.8531 18.0001 84.9091 17.0827 84.9091 15.2481V10.9761H83.8531V9.13605H84.9091V6.94405H87.1651V9.13605H89.1491V10.9761H87.1651Z" fill="#FF9900"/>
<path d="M95.7523 9.00805C96.4242 9.00805 97.0216 9.15739 97.5443 9.45605C98.0669 9.74405 98.4723 10.1761 98.7603 10.7521C99.0589 11.3174 99.2083 12.0001 99.2083 12.8001V18.0001H96.9682V13.1041C96.9682 12.4001 96.7922 11.8614 96.4402 11.4881C96.0882 11.1041 95.6083 10.9121 95.0003 10.9121C94.3816 10.9121 93.8909 11.1041 93.5283 11.4881C93.1763 11.8614 93.0003 12.4001 93.0003 13.1041V18.0001H90.7603V6.16006H93.0003V10.2401C93.2883 9.85605 93.6722 9.55739 94.1523 9.34406C94.6323 9.12005 95.1656 9.00805 95.7523 9.00805Z" fill="#FF9900"/>
<path d="M109.578 13.3761C109.578 13.6961 109.557 13.9841 109.514 14.2401H103.034C103.088 14.8801 103.312 15.3814 103.706 15.7441C104.101 16.1067 104.586 16.2881 105.162 16.2881C105.994 16.2881 106.586 15.9307 106.938 15.2161H109.354C109.098 16.0694 108.608 16.7734 107.882 17.3281C107.157 17.8721 106.266 18.1441 105.21 18.1441C104.357 18.1441 103.589 17.9574 102.906 17.5841C102.234 17.2001 101.706 16.6614 101.322 15.9681C100.949 15.2747 100.762 14.4747 100.762 13.5681C100.762 12.6507 100.949 11.8454 101.322 11.1521C101.696 10.4587 102.218 9.92539 102.89 9.55206C103.562 9.17872 104.336 8.99205 105.21 8.99205C106.053 8.99205 106.805 9.17339 107.466 9.53605C108.138 9.89872 108.656 10.4161 109.018 11.0881C109.392 11.7494 109.578 12.5121 109.578 13.3761ZM107.258 12.7361C107.248 12.1601 107.04 11.7014 106.634 11.3601C106.229 11.0081 105.733 10.8321 105.146 10.8321C104.592 10.8321 104.122 11.0027 103.738 11.3441C103.365 11.6747 103.136 12.1387 103.05 12.7361H107.258Z" fill="#FF9900"/>
<path d="M125.058 6.83206L120.962 18.0001H118.242L114.146 6.83206H116.546L119.618 15.7121L122.674 6.83206H125.058Z" fill="#FF9900"/>
<path d="M127.537 8.08006C127.142 8.08006 126.812 7.95739 126.545 7.71206C126.289 7.45605 126.161 7.14139 126.161 6.76805C126.161 6.39472 126.289 6.08539 126.545 5.84005C126.812 5.58405 127.142 5.45605 127.537 5.45605C127.932 5.45605 128.257 5.58405 128.513 5.84005C128.78 6.08539 128.913 6.39472 128.913 6.76805C128.913 7.14139 128.78 7.45605 128.513 7.71206C128.257 7.95739 127.932 8.08006 127.537 8.08006ZM128.641 9.13605V18.0001H126.401V9.13605H128.641Z" fill="#FF9900"/>
<path d="M130.278 13.5361C130.278 12.6401 130.454 11.8454 130.806 11.1521C131.169 10.4587 131.659 9.92539 132.278 9.55206C132.897 9.17872 133.585 8.99205 134.342 8.99205C134.918 8.99205 135.467 9.12005 135.99 9.37605C136.513 9.62139 136.929 9.95206 137.238 10.3681V6.16006H139.51V18.0001H137.238V16.6881C136.961 17.1254 136.571 17.4774 136.07 17.7441C135.569 18.0107 134.987 18.1441 134.326 18.1441C133.579 18.1441 132.897 17.9521 132.278 17.5681C131.659 17.1841 131.169 16.6454 130.806 15.9521C130.454 15.2481 130.278 14.4427 130.278 13.5361ZM137.254 13.5681C137.254 13.0241 137.147 12.5601 136.934 12.1761C136.721 11.7814 136.433 11.4827 136.07 11.2801C135.707 11.0667 135.318 10.9601 134.902 10.9601C134.486 10.9601 134.102 11.0614 133.75 11.2641C133.398 11.4667 133.11 11.7654 132.886 12.1601C132.673 12.5441 132.566 13.0027 132.566 13.5361C132.566 14.0694 132.673 14.5387 132.886 14.9441C133.11 15.3387 133.398 15.6427 133.75 15.8561C134.113 16.0694 134.497 16.1761 134.902 16.1761C135.318 16.1761 135.707 16.0747 136.07 15.8721C136.433 15.6587 136.721 15.3601 136.934 14.9761C137.147 14.5814 137.254 14.1121 137.254 13.5681Z" fill="#FF9900"/>
<path d="M149.938 13.3761C149.938 13.6961 149.916 13.9841 149.874 14.2401H143.394C143.447 14.8801 143.671 15.3814 144.066 15.7441C144.46 16.1067 144.946 16.2881 145.522 16.2881C146.354 16.2881 146.946 15.9307 147.298 15.2161H149.714C149.458 16.0694 148.967 16.7734 148.242 17.3281C147.516 17.8721 146.626 18.1441 145.57 18.1441C144.716 18.1441 143.948 17.9574 143.266 17.5841C142.594 17.2001 142.066 16.6614 141.682 15.9681C141.308 15.2747 141.122 14.4747 141.122 13.5681C141.122 12.6507 141.308 11.8454 141.682 11.1521C142.055 10.4587 142.578 9.92539 143.25 9.55206C143.922 9.17872 144.695 8.99205 145.57 8.99205C146.412 8.99205 147.164 9.17339 147.826 9.53605C148.498 9.89872 149.015 10.4161 149.378 11.0881C149.751 11.7494 149.938 12.5121 149.938 13.3761ZM147.618 12.7361C147.607 12.1601 147.399 11.7014 146.994 11.3601C146.588 11.0081 146.092 10.8321 145.506 10.8321C144.951 10.8321 144.482 11.0027 144.098 11.3441C143.724 11.6747 143.495 12.1387 143.41 12.7361H147.618Z" fill="#FF9900"/>
<path d="M155.509 18.1441C154.655 18.1441 153.887 17.9574 153.205 17.5841C152.522 17.2001 151.983 16.6614 151.589 15.9681C151.205 15.2747 151.013 14.4747 151.013 13.5681C151.013 12.6614 151.21 11.8614 151.605 11.1681C152.01 10.4747 152.559 9.94139 153.253 9.56806C153.946 9.18406 154.719 8.99205 155.573 8.99205C156.426 8.99205 157.199 9.18406 157.893 9.56806C158.586 9.94139 159.13 10.4747 159.525 11.1681C159.93 11.8614 160.133 12.6614 160.133 13.5681C160.133 14.4747 159.925 15.2747 159.509 15.9681C159.103 16.6614 158.549 17.2001 157.845 17.5841C157.151 17.9574 156.373 18.1441 155.509 18.1441ZM155.509 16.1921C155.914 16.1921 156.293 16.0961 156.645 15.9041C157.007 15.7014 157.295 15.4027 157.509 15.0081C157.722 14.6134 157.829 14.1334 157.829 13.5681C157.829 12.7254 157.605 12.0801 157.157 11.6321C156.719 11.1734 156.181 10.9441 155.541 10.9441C154.901 10.9441 154.362 11.1734 153.925 11.6321C153.498 12.0801 153.285 12.7254 153.285 13.5681C153.285 14.4107 153.493 15.0614 153.909 15.5201C154.335 15.9681 154.869 16.1921 155.509 16.1921Z" fill="#FF9900"/>
<path d="M26 19.6001H160.677V20.4001H26V19.6001Z" fill="#FF9900"/>
<path fill-rule="evenodd" clip-rule="evenodd" d="M15.8515 10.5303C16.591 10.9653 16.591 12.0346 15.8515 12.4696L2.19537 20.5027C1.44541 20.9438 0.499975 20.4031 0.499975 19.533L0.499975 3.46692C0.499975 2.59682 1.44541 2.05609 2.19537 2.49724L15.8515 10.5303Z" fill="#FF9900"/>
</svg>
