<svg width="50" height="50" viewBox="0 0 50 50" fill="none" xmlns="http://www.w3.org/2000/svg">
<path d="M0 19C0 8.50659 8.50659 0 19 0H31C41.4934 0 50 8.50659 50 19V31C50 41.4934 41.4934 50 31 50H19C8.50659 50 0 41.4934 0 31V19Z" fill="#F03E3D"/>
<path d="M25 33.1429C25.1429 33.1429 25.2857 33.0893 25.3929 32.9822L30.9554 27.625C31.0357 27.5447 33 25.75 33 23.6072C33 20.9911 31.4018 19.4286 28.7321 19.4286C27.1696 19.4286 25.7054 20.6607 25 21.3572C24.2946 20.6607 22.8304 19.4286 21.2679 19.4286C18.5982 19.4286 17 20.9911 17 23.6072C17 25.75 18.9643 27.5447 19.0357 27.6072L24.6071 32.9822C24.7143 33.0893 24.8571 33.1429 25 33.1429Z" fill="white"/>
</svg>
