<svg width="50" height="50" viewBox="0 0 50 50" fill="none" xmlns="http://www.w3.org/2000/svg">
<path d="M0 19C0 8.50659 8.50659 0 19 0H31C41.4934 0 50 8.50659 50 19V31C50 41.4934 41.4934 50 31 50H19C8.50659 50 0 41.4934 0 31V19Z" fill="#4DADF7"/>
<path d="M30.5714 19.4286H31.4286C31.5893 19.4286 31.7143 19.3036 31.7143 19.1429V18.5715C31.7143 18.4108 31.5893 18.2858 31.4286 18.2858H18.2857C18.125 18.2858 18 18.4108 18 18.5715V19.1429C18 19.3036 18.125 19.4286 18.2857 19.4286H19.1429C19.1429 22.7322 20.7232 25.1251 22.4732 26.2858C20.7232 27.4465 19.1429 29.8393 19.1429 33.1429H18.2857C18.125 33.1429 18 33.2679 18 33.4286V34.0001C18 34.1608 18.125 34.2858 18.2857 34.2858H31.4286C31.5893 34.2858 31.7143 34.1608 31.7143 34.0001V33.4286C31.7143 33.2679 31.5893 33.1429 31.4286 33.1429H30.5714C30.5714 29.8393 28.9911 27.4465 27.2411 26.2858C28.9911 25.1251 30.5714 22.7322 30.5714 19.4286ZM29.4286 19.4286C29.4286 20.7322 29.1339 21.884 28.6696 22.8572H21.0446C20.5804 21.884 20.2857 20.7322 20.2857 19.4286H29.4286ZM28.9196 30.2858H20.7946C21.4554 28.5626 22.6429 27.3393 23.8304 26.8572H25.8839C27.0714 27.3393 28.2589 28.5626 28.9196 30.2858Z" fill="white"/>
</svg>
